# xmcd
#
# Track frame offsets:
#	150
#	3938
#	13486
#	23607
#	37685
#	56817
#	65481
#	70777
#	81901
#	91362
#	103778
#	113512
#	123587
#	135392
#	152863
#	163918
#	175715
#	189063
#	202685
#	210181
#	214766
#	225323
#	235212
#	247152
#	260985
#	270258
#	279464
#	289102
#	309448
#	320599
# Disc length: 4418 seconds
# Revision: 1
# Processed by: cddbd v1.5.1PL2 Copyright (c) Steve Scherf et al.
#
# Submitted via: libkcddb 0.21
#
DISCID=9811401e
DTITLE=Flatt and Scruggs - Live in Osaka Japan
DYEAR=1968
DGENRE=Bluegrass
TTITLE0=Introduction - Instrumental
TTITLE1=Band Introductions
TTITLE2=I Wonder if youre Lonesome Too
TTITLE3=Flint Hill Special
TTITLE4=Wabash Cannonball
TTITLE5=Dobro Rhumba
TTITLE6=Martha White Flour
TTITLE7=Roustabout
TTITLE8=Foggy Mountain Special
TTITLE9=Footprints in the Snow
TTITLE10=Old MacDonald
TTITLE11=Down in the Flood
TTITLE12=Hot Corn Cold Corn
TTITLE13=Orange Blossom Special
TTITLE14=California Uptight Band
TTITLE15=Beverly Hillbillies Theme
TTITLE16=Listen to the Mockingbird
TTITLE17=Keep on the Sunny Side
TTITLE18=You are my Sunshine
TTITLE19=Florida Blues
TTITLE20=All Good Times are Past and Gone
TTITLE21=My Sweet Babies Arms
TTITLE22=Someday well meet again Sweetheart
TTITLE23=Foggy Mountain Breakdown
TTITLE24=When the Saints go marching in
TTITLE25=Im on my Way to Canans Land
TTITLE26=Cannonball Blues
TTITLE27=Jimmy Brown the Newsboy
TTITLE28=Nine Pound Hammer
TTITLE29=Salty Dog Blues
EXTD=
EXTT0=
EXTT1=
EXTT2=
EXTT3=
EXTT4=
EXTT5=
EXTT6=
EXTT7=
EXTT8=
EXTT9=
EXTT10=
EXTT11=
EXTT12=
EXTT13=
EXTT14=
EXTT15=
EXTT16=
EXTT17=
EXTT18=
EXTT19=
EXTT20=
EXTT21=
EXTT22=
EXTT23=
EXTT24=
EXTT25=
EXTT26=
EXTT27=
EXTT28=
EXTT29=
PLAYORDER=
